<?xml version="1.0" standalone="no"?>
<!DOCTYPE svg PUBLIC "-//W3C//DTD SVG 20010904//EN"
 "http://www.w3.org/TR/2001/REC-SVG-20010904/DTD/svg10.dtd">
<svg version="1.0" xmlns="http://www.w3.org/2000/svg"
 width="250.000000pt" height="250.000000pt" viewBox="0 0 250.000000 250.000000"
 preserveAspectRatio="xMidYMid meet">
<metadata>
Created by potrace 1.14, written by Peter Selinger 2001-2017
</metadata>
<g transform="translate(0.000000,250.000000) scale(0.100000,-0.100000)"
fill="#000000" stroke="none">
<path d="M1120 2490 c-30 -4 -73 -11 -95 -15 -70 -11 -227 -66 -315 -110 -114
-58 -214 -130 -309 -223 -127 -124 -195 -227 -302 -453 -7 -15 -27 -85 -34
-119 -2 -8 -11 -42 -19 -75 -38 -140 -30 -407 16 -570 7 -22 12 -42 13 -45 11
-47 27 -85 79 -193 115 -235 320 -443 550 -558 96 -49 206 -92 214 -84 3 2 11
0 18 -6 7 -6 23 -12 36 -14 13 -2 50 -8 83 -14 93 -17 380 -14 467 5 40 8 81
17 90 19 70 15 338 137 358 164 3 3 32 26 65 51 103 76 232 215 303 325 39 61
123 251 141 318 19 69 21 105 21 350 0 149 -5 290 -11 312 -5 22 -12 51 -15
65 -6 26 -17 54 -67 165 -44 96 -115 203 -206 310 -21 26 -102 96 -161 140
-36 27 -71 55 -77 61 -17 16 -253 133 -278 137 -11 2 -28 7 -37 10 -37 14 -55
19 -128 33 -89 18 -322 26 -400 14z"/>
</g>
</svg>
